<?xml version="1.0" encoding="UTF-8"?>
<svg id="artwork" xmlns="http://www.w3.org/2000/svg" version="1.1" viewBox="0 0 554.7 678.5">
  <!-- Generator: Adobe Illustrator 29.7.1, SVG Export Plug-In . SVG Version: 2.1.1 Build 8)  -->
  <defs>
    <style>
      .st0 {
        font-family: Montserrat-Black, Montserrat;
        font-size: 91.2px;
        font-weight: 800;
      }

      .st0, .st1, .st2 {
        fill: #9b0a2c;
      }

      .st1 {
        font-family: Montserrat-Bold, Montserrat;
        font-size: 36.7px;
        font-weight: 700;
        letter-spacing: .7em;
      }
    </style>
  </defs>
  <g>
    <text class="st0" transform="translate(100.2 555.6)"><tspan x="0" y="0">FC PRO</tspan></text>
    <text class="st1" transform="translate(101.2 607)"><tspan x="0" y="0">SERVICES</tspan></text>
  </g>
  <path class="st2" d="M285.4,117.8c44.8,0,86.8,17.4,118.5,49.1,31.7,31.6,49.1,73.7,49.1,118.5s-17.4,86.8-49.1,118.5c-31.7,31.7-73.7,49.1-118.5,49.1s-86.8-17.4-118.5-49.1c-31.7-31.7-49.1-73.7-49.1-118.5s17.4-86.8,49.1-118.5c31.6-31.7,73.7-49.1,118.5-49.1M285.4,100.8c-49.3,0-95.7,19.2-130.5,54.1-34.9,34.9-54.1,81.2-54.1,130.5s19.2,95.7,54.1,130.5c34.9,34.9,81.2,54.1,130.5,54.1s95.7-19.2,130.5-54.1c34.9-34.9,54.1-81.2,54.1-130.5s-19.2-95.7-54.1-130.5c-34.9-34.9-81.2-54.1-130.5-54.1h0Z"/>
  <path class="st2" d="M278.6,171.4h0c0,0-27.8-8.7-27.8-8.7h0s-.3,0-.3,0c-2.8,1.7-5.6,3.4-8.1,5.4-.8.6-1.3,2.3-1,3.2.9,3,2.2,5.8,3.5,9-2.7,1.8-5.3,3.6-8,5.1-1.6,1-2,1.9-1.2,3.6,1.3,2.8,2.4,5.7,3.6,8.7-3.4,2.3-6.7,4.5-9.9,6.7,1.5,3.9,2.9,7.4,4.4,10.9-.6.4-1.3.8-1.9,1.3-1.8,1.1-3.7,2.3-5.4,3.6-.9.6-1.7,1.2-2.6,1.8.4.9.7,1.8,1.1,2.7.9,2.7,2.1,5.4,3.3,8.3-1.9,1.2-3.7,2.5-5.5,3.7-.8.5-1.6,1-2.4,1.5-.5.3-.8.5-1.1.8-.3.2-.6.4-.9.6.1.3.2.6.4.9,0,.4.2.8.4,1.3,1,2.1,1.8,4.2,2.7,6.4,0,.2.1.3.2.5.3.8-.2,2.5-.9,3-.2.1-.3.2-.5.4-1.6,1.1-3.2,2.2-4.8,3.2-1,.6-1.9,1.2-2.9,1.8,0,0,0,0,0,0,0,0,0,0,0,0,1.4,3.5,2.7,6.7,4,10,0,.6,0,1.1-.5,1.6-1,.6-1.9,1.3-2.9,1.9-2.1,1.3-4.1,2.7-6.1,4.1,0,0,0,0,0,0,0,0,0,0,0,0,.3.7.5,1.3.8,2,.4,1.2.9,2.4,1.4,3.5.5,1.3,1.1,2.7,1.6,4.1,0,.9-.2,1.6-.8,2.3-1.1.7-2.2,1.5-3.3,2.2-1.8,1-3.4,2.2-5.2,3.4,0,0,0,0,0,0,0,0,0,0,0,0,.6,1.5,1.2,2.8,1.7,4.2.5,1.2.9,2.3,1.4,3.5.2.5.3.9.5,1.4.3.8-.2,2.5-.9,3-.4.3-.8.6-1.2.9-1.3.9-2.5,1.7-3.8,2.5-1.1.7-2.1,1.4-3.2,2.1.5,1.3,1,2.5,1.5,3.7.4.9.7,1.9,1.1,2.7.3.7.6,1.5.9,2.2.3.6.4,1.1.5,1.6,0,.8-.5,1.5-1.2,2-.1,0-.3.2-.4.3-1.6.9-3.2,1.9-4.7,3-1,.7-2,1.3-3.1,2,0,0,0,0,0,0,0,0,0,0,0,0,1,2.4,1.6,4.7,2.7,6.7.1.3.2.6.4.8.2.4.4.8.5,1.2.4,1.6,0,2.8-1.4,3.9-.2.2-.5.3-.8.5-.8.4-1.6.9-2.3,1.4-1.6.9-3,2.1-4.7,3.1.3.7.6,1.4.8,2.2.3.9.7,1.8,1,2.7.8,2.1,1.6,4.1,2.4,6.2-3.5,2.3-6.6,4.4-9.8,6.6,1.1,2.8,1.9,5.5,3.2,8,1.3,2.5.5,3.7-1.7,5-2.4,1.4-4.7,3-7.1,4.6,1,2.6,6.1,8.4,6.2,8.6h0s0,0,0,0l60.1,18.7c4.6,1.4,8.8,1,10.9-5.7-18.9-19.4,7.2-79.1,7.2-79.1l34.9,10.9c11,3.4,22.8-2.7,26.2-13.7l10.6-33.9-12.6-3.9c-2.2.3-4.5.5-6.6,0-6.2-1.6-12.3-3.7-19.1-5.9-.5,4.4-1.2,8.5-1.2,12.6-.2,10.2,2.9,19.5,8.3,28.1.6.9.8,2.4.5,3.5-.7,2.8-1.7,5.6-2.6,8.6-5.4-2.7-9.9-6.1-13.7-10.3-13.6-15-17.9-32.4-12.4-51.9,2.4-8.4,5.2-16.6,7.7-24.9.4-1.3.9-2.1,2.5-2.5,9.7-2.4,13-13.1,6.6-20.7-.6-.7-1-2-.8-2.9,2.1-7.2,4.4-14.3,6.7-21.4.1-.4.4-.8.6-1.3,13.7,4.3,27.3,8.6,41.2,12.9-.2,1-.4,1.9-.7,2.7-2,6.4-4,12.8-6,19.2-.5,1.6-1.2,2.5-3,3-7.4,1.9-11.2,9.4-8.7,16.5.8,2.3,2.2,4,4.5,5.1,1.4.7,2.7,1.5,3.9,2.6.5.4.9.9,1.3,1.4l6.2,1.9c33.1,10.3,68.2-8.2,78.5-41.2l1.1-3.6-134-41.8ZM269.3,188.2c-3.4-1.1-5.3-4.7-4.2-8.1,1.1-3.4,4.7-5.3,8.1-4.2s5.3,4.7,4.2,8.1c-1.1,3.4-4.7,5.3-8.1,4.2Z"/>
</svg>